<svg xmlns="http://www.w3.org/2000/svg" xmlns:xlink="http://www.w3.org/1999/xlink" width="500" zoomAndPan="magnify" viewBox="0 0 375 374.999991" height="500" preserveAspectRatio="xMidYMid meet" version="1.0"><defs><g/><clipPath id="618ec37d30"><path d="M 2.402344 2.402344 L 372.597656 2.402344 L 372.597656 372.597656 L 2.402344 372.597656 Z M 2.402344 2.402344 " clip-rule="nonzero"/></clipPath><clipPath id="f46ade8f65"><path d="M 187.5 2.402344 C 85.273438 2.402344 2.402344 85.273438 2.402344 187.5 C 2.402344 289.726562 85.273438 372.597656 187.5 372.597656 C 289.726562 372.597656 372.597656 289.726562 372.597656 187.5 C 372.597656 85.273438 289.726562 2.402344 187.5 2.402344 Z M 187.5 2.402344 " clip-rule="nonzero"/></clipPath><clipPath id="2f7310e692"><path d="M 2.402344 2.402344 L 372.585938 2.402344 L 372.585938 372.585938 L 2.402344 372.585938 Z M 2.402344 2.402344 " clip-rule="nonzero"/></clipPath><clipPath id="db371eb7fe"><path d="M 187.496094 2.402344 C 85.273438 2.402344 2.402344 85.273438 2.402344 187.496094 C 2.402344 289.71875 85.273438 372.585938 187.496094 372.585938 C 289.71875 372.585938 372.585938 289.71875 372.585938 187.496094 C 372.585938 85.273438 289.71875 2.402344 187.496094 2.402344 Z M 187.496094 2.402344 " clip-rule="nonzero"/></clipPath></defs><g clip-path="url(#618ec37d30)"><g clip-path="url(#f46ade8f65)"><path fill="#f5f5f5" d="M 2.402344 2.402344 L 372.597656 2.402344 L 372.597656 372.597656 L 2.402344 372.597656 Z M 2.402344 2.402344 " fill-opacity="1" fill-rule="nonzero"/></g></g><g clip-path="url(#2f7310e692)"><g clip-path="url(#db371eb7fe)"><path stroke-linecap="butt" transform="matrix(0.75, 0, 0, 0.75, 2.40385, 2.403846)" fill="none" stroke-linejoin="miter" d="M 246.789674 -0.00200295 C 110.49279 -0.00200295 -0.00200895 110.492796 -0.00200895 246.78968 C -0.00200895 383.086564 110.49279 493.576154 246.789674 493.576154 C 383.086558 493.576154 493.576148 383.086564 493.576148 246.78968 C 493.576148 110.492796 383.086558 -0.00200295 246.789674 -0.00200295 Z M 246.789674 -0.00200295 " stroke="#005b9f" stroke-width="8" stroke-opacity="1" stroke-miterlimit="4"/></g></g><g fill="#005b9f" fill-opacity="1"><g transform="translate(84.751501, 249.15383)"><g><path d="M 65.9375 -59.84375 L 104.765625 -59.84375 L 104.765625 -4.296875 C 98.722656 -2.367188 92.578125 -0.910156 86.328125 0.078125 C 80.078125 1.066406 72.835938 1.5625 64.609375 1.5625 C 47.316406 1.5625 33.851562 -3.578125 24.21875 -13.859375 C 14.582031 -24.148438 9.765625 -38.566406 9.765625 -57.109375 C 9.765625 -68.984375 12.144531 -79.382812 16.90625 -88.3125 C 21.675781 -97.25 28.539062 -104.070312 37.5 -108.78125 C 46.457031 -113.5 56.953125 -115.859375 68.984375 -115.859375 C 81.171875 -115.859375 92.523438 -113.617188 103.046875 -109.140625 L 97.890625 -97.421875 C 87.578125 -101.796875 77.65625 -103.984375 68.125 -103.984375 C 54.21875 -103.984375 43.359375 -99.84375 35.546875 -91.5625 C 27.734375 -83.28125 23.828125 -71.796875 23.828125 -57.109375 C 23.828125 -41.691406 27.585938 -30 35.109375 -22.03125 C 42.640625 -14.0625 53.695312 -10.078125 68.28125 -10.078125 C 76.195312 -10.078125 83.929688 -10.988281 91.484375 -12.8125 L 91.484375 -47.96875 L 65.9375 -47.96875 Z M 65.9375 -59.84375 "/></g></g></g><g fill="#005b9f" fill-opacity="1"><g transform="translate(201.233031, 249.15383)"><g><path d="M 79.375 0 L 15.703125 0 L 15.703125 -114.21875 L 79.375 -114.21875 L 79.375 -102.421875 L 28.984375 -102.421875 L 28.984375 -65.625 L 76.328125 -65.625 L 76.328125 -53.90625 L 28.984375 -53.90625 L 28.984375 -11.875 L 79.375 -11.875 Z M 79.375 0 "/></g></g></g></svg>